<svg xmlns="http://www.w3.org/2000/svg" viewBox="0 0 509.287 509.287"><circle cx="254.644" cy="254.644" r="254.644" fill="#886c60"/><path fill="#fcfcfd" d="M321.102 63.068H105.113v377.049h307.878V154.956z"/><g fill="#f1f3f7"><path d="M321.102 154.956h91.889l-91.889-91.888zM154.956 140.037h134.951v14.58H154.956zM154.956 193.95h208.53v14.58h-208.53zM154.956 247.862h208.53v14.58h-208.53zM154.956 301.775h208.53v14.58h-208.53zM154.956 355.687h208.53v14.58h-208.53z"/></g><g fill="#f0582f"><path d="M302.792 466.903l-10.172-21.022-21.023 9.833 33.908-94.601 30.855 10.85z"/><path d="M360.774 466.903l10.172-21.022 21.022 9.833-33.568-94.601-31.195 10.85z"/></g><path d="M337.038 284.143c4.069-3.391 10.172-2.034 12.207 2.713 1.695 3.391 5.764 5.425 9.494 4.069 5.086-1.356 9.833 2.034 10.172 7.46 0 3.73 3.052 7.121 6.781 7.46 5.086.678 8.138 6.103 6.103 10.85-1.356 3.73 0 7.799 3.052 9.833 4.408 2.713 5.086 8.816 1.356 12.546-2.713 2.713-3.391 7.121-1.017 10.172 3.052 4.408 1.017 10.172-3.73 11.868-3.73 1.356-5.764 5.086-5.086 8.816 1.017 5.086-3.052 9.833-8.477 9.155-3.73-.339-7.46 2.374-8.138 6.103-1.356 5.086-6.781 7.46-11.528 5.086-3.391-1.695-7.799-1.017-10.172 2.034-3.052 4.069-9.494 4.069-12.546 0-2.373-3.052-6.781-4.069-10.172-2.034-4.408 2.374-10.172 0-11.528-5.086-1.017-3.73-4.408-6.442-8.138-6.103-5.086.339-9.494-4.069-8.477-9.155.678-3.73-1.356-7.46-5.086-8.816-4.747-1.695-6.781-7.799-3.73-11.868 2.374-3.052 1.695-7.46-1.017-10.172-3.73-3.73-3.052-9.833 1.356-12.546 3.391-2.034 4.747-6.103 3.052-9.833-2.034-4.747 1.017-10.172 6.103-10.85 3.73-.339 6.781-3.73 6.781-7.46 0-5.086 5.086-8.816 10.172-7.46 3.73 1.017 7.799-.678 9.494-4.069 2.374-4.747 8.138-6.103 12.207-2.713 3.053 2.374 7.461 2.374 10.512 0z" fill="#fbd303"/><circle cx="331.952" cy="338.734" r="37.637" fill="#f8b517"/><path fill="#fcfcfd" d="M331.952 303.131l7.799 24.752h26.448l-21.362 15.259 8.138 25.091-21.023-15.597-21.361 15.597 8.137-25.091-21.022-15.259h26.109z"/></svg>