<svg id="Слой_1" xmlns="http://www.w3.org/2000/svg" viewBox="0 0 582 240.7"><style>.st0{fill:none}.st1{fill:#c12a2f}.st2{fill:#090909}.st3{fill:#119246}.st4{fill:#56b472}.st5{fill:#20a84c}.st6{fill:#14763b}.st7{fill:#0e6838}.st8{fill:#8bbf40}.st9{fill:#b1cf6b}.st10{fill:#b6d169}.st11{fill:#d8db20}.st12{fill:#fdeb21}.st13{fill:#f5ca50}.st14{fill:#f7db65}.st15{fill:#f9af3b}.st16{fill:#f1883a}.st17{fill:#eb6037}.st18{fill:#e73535}</style><path class="st0" d="M271.3 60.6c1.2 0 2.1-.6 2.7-2 .6-1.3.7-2.9.7-5.7 0-2.8-.1-4.4-.7-5.7-.6-1.3-1.5-2-2.7-2-1.2 0-2.1.6-2.7 2-.6 1.3-.7 2.9-.7 5.7 0 2.3.1 4.2.7 5.7.5 1.2 1.3 2 2.7 2zM424.4 95.2c-5.3 0-9.5 4-10.4 9.5h20.5c-1.1-5.9-5.3-9.5-10.1-9.5zM331.5 106.9c0-6.6-4.5-11.7-10.6-11.7-6.2 0-10.6 5.1-10.6 11.7s4.5 11.6 10.6 11.6 10.6-5 10.6-11.6zM272.3 106.9c0-6.6-4.5-11.7-10.6-11.7-6.2 0-10.6 5.1-10.6 11.7s4.5 11.6 10.6 11.6 10.6-5 10.6-11.6zM350.1 219.8c-1.1.8-1.4 1.9-1.4 2.8 0 1.4 1 2.4 2.8 2.4 3.8 0 4-3.3 4-5.3v-1.5l-1.6.3c-2.4.3-3.5 1-3.8 1.3zM295 150.1c-6.2 0-10.6 5.1-10.6 11.7s4.5 11.6 10.6 11.6c6.2 0 10.6-5 10.6-11.6s-4.4-11.7-10.6-11.7zM448.4 173.4c6.2 0 10.6-5 10.6-11.6s-4.5-11.7-10.6-11.7c-6.2 0-10.6 5.1-10.6 11.7s4.4 11.6 10.6 11.6zM292.4 219.8c-1.1.8-1.4 1.9-1.4 2.8 0 1.4 1 2.4 2.8 2.4 3.8 0 4-3.3 4-5.3v-1.5l-1.6.3c-2.4.3-3.4 1-3.8 1.3zM453.8 46.5c-.9-1.1-2-1.2-2.6-1.2-.7 0-1.8.1-2.7 1.2-.7.8-1.2 2.1-1.1 3.4h7.3c.1-1.2-.2-2.5-.9-3.4zM207.3 209.9c-1.2 0-2.1.6-2.7 2-.6 1.3-.7 2.9-.7 5.7 0 2.3.1 4.2.7 5.7.6 1.2 1.3 2 2.7 2 1.2 0 2.1-.6 2.7-2 .6-1.3.7-2.9.7-5.7 0-2.8-.1-4.4-.7-5.7-.6-1.3-1.5-2-2.7-2zM241 150.1c-5.3 0-9.5 4-10.4 9.5h20.5c-1.1-5.9-5.3-9.5-10.1-9.5zM337.7 54h-2v6h1.9c.9 0 1.8-.2 2.3-.7.9-.7.9-1.9.9-2.3 0-.8-.2-1.6-.9-2.3-.7-.6-1.6-.7-2.2-.7zM355.5 150.1c-6 0-10.9 5-10.9 11.8 0 6.6 5.1 11.5 11 11.5 6 0 10.8-5.1 10.8-11.5-.1-6.5-4.7-11.8-10.9-11.8zM264.6 210.2c-.8 0-1.5.3-1.9.8-.9.9-.9 2.3-.9 3.3v5.9c0 1.5.1 2.7.6 3.5.3.4.9 1.4 2.3 1.4 1.1 0 2.2-.6 2.8-2.3.5-1.2.6-2.8.6-5.4 0-2.9-.3-4.3-.7-5.3-.8-1.4-1.8-1.9-2.8-1.9zM242.3 60.6c1.1 0 2.2-.6 2.8-2.3.5-1.2.6-2.8.6-5.4 0-2.9-.3-4.3-.7-5.3-.7-1.5-1.7-2-2.7-2-.8 0-1.5.3-1.9.8-.9.9-.9 2.3-.9 3.3v5.9c0 1.5.1 2.7.6 3.5.2.5.8 1.5 2.2 1.5zM527.9 161.9h-7.3v10.8h7.3c3.9 0 5.7-2.6 5.7-5.4 0-2.8-1.8-5.4-5.7-5.4zM510.9 118.7c6 0 10.8-5.1 10.8-11.5 0-6.6-4.7-11.8-10.9-11.8-6 0-10.9 5-10.9 11.8 0 6.7 5.1 11.5 11 11.5zM209.2 173.4c6.3 0 10.4-4.9 10.4-11.1 0-6.7-4.4-11.1-10.4-11.1-6.1 0-10.4 4.8-10.4 11.1s4.4 11.1 10.4 11.1zM500.2 220.7c-1.1.8-1.4 1.9-1.4 2.8 0 1.4 1 2.4 2.8 2.4 3.8 0 4-3.3 4-5.3V219l-1.6.3c-2.4.4-3.4 1.1-3.8 1.4zM567.2 46.6c-.4.4-.9 1.1-.9 2.3 0 1.1.4 1.9.9 2.3.8.7 1.9.7 2.8.7h2.1v-6.2h-2.4c-.7.1-1.8.2-2.5.9zM537.7 55.4c-1.1.8-1.4 1.9-1.4 2.8 0 1.4 1 2.4 2.8 2.4 3.8 0 4-3.3 4-5.3v-1.5l-1.6.3c-2.4.4-3.4 1.1-3.8 1.3zM48.9 54.8v.1-.1zM469.4 211.9c0 5.5-.5 8.9-1.6 12.1h5v-12.9h-3.4v.8zM417 210.2c-.8 0-1.5.3-1.9.8-.9.9-.9 2.3-.9 3.3v5.9c0 1.5.1 2.7.6 3.5.3.4.9 1.4 2.3 1.4 1.1 0 2.2-.6 2.8-2.3.5-1.2.6-2.8.6-5.4 0-2.9-.3-4.3-.7-5.3-.7-1.4-1.8-1.9-2.8-1.9z"/><path class="st1" d="M206 38.6h8.1v27.9h10.5V30.1h-29.1v36.4H206zM239.5 63.6c.7 1 1.4 1.9 2.8 2.5 1.1.5 2.5.9 3.9.9 2.2 0 4.9-.7 7.1-3.9 2.2-3.1 2.7-7 2.7-10.5 0-2.9-.3-7-2.5-10.2-1.6-2.3-3.6-3.7-6.7-3.7-2 0-4 .5-5.4 1.6-1 .7-1.9 2.1-2.5 3.2v-4.2h-9.2v35.8h9.9V63.6zm0-13.9c0-1 0-2.4.9-3.3.5-.5 1.2-.8 1.9-.8 1 0 2.1.5 2.7 2 .5 1 .7 2.4.7 5.3 0 2.7-.2 4.2-.6 5.4-.7 1.7-1.7 2.3-2.8 2.3-1.4 0-2-1-2.3-1.4-.5-.8-.6-2-.6-3.5v-6zM271.3 67c4.4 0 7.4-1.7 9.4-3.7 2.7-2.7 4.2-6.6 4.2-10.5 0-3.9-1.5-7.8-4.2-10.5-2-2-5-3.7-9.4-3.7s-7.4 1.7-9.4 3.7c-2.7 2.7-4.2 6.6-4.2 10.5 0 3.9 1.5 7.8 4.2 10.5 2 2.1 5 3.7 9.4 3.7zm-2.7-19.7c.6-1.3 1.5-2 2.7-2 1.2 0 2.1.6 2.7 2 .6 1.3.7 2.9.7 5.7 0 2.8-.1 4.4-.7 5.7-.6 1.4-1.5 2-2.7 2-1.4 0-2.2-.7-2.7-2-.7-1.5-.7-3.3-.7-5.7 0-2.8.1-4.5.7-5.7zM295.4 49.1c0-.5-.1-2-.2-2.7.6 1.8.5 1.7.7 2.3l5.1 17.8h5.9l4.9-17.8c.1-.4.1-.5.3-1.1 0-.1.1-.3.2-.4.1-.3.2-.5.3-.7-.1 1.4-.2 1.9-.2 2.7v17.5h8.9V39.4h-12.5l-3.9 14.1-3.9-14.1h-12.7v27.2h7.3V49.1zM348.1 64.3c1.8-1.6 2.8-4.7 2.8-7.3 0-2.8-1.2-4.9-2.5-6.1-2.2-2-5.1-2.2-7.2-2.2h-5.6v-9.3h-9.9v27.2h15.6c1.6-.1 4.5-.1 6.8-2.3zm-8.2-5c-.6.5-1.4.7-2.3.7h-1.9v-6h2c.6 0 1.5.1 2.2.7.8.6.9 1.5.9 2.3 0 .4-.1 1.6-.9 2.3zM352.4 39.4h9.9v27.2h-9.9zM405.6 39.4h-9.7v20h-4.8v-20h-9.7v20h-4.8v-20h-9.7v27.1h38.7zM416.5 64.7c2.1-2 3.1-4.6 3.7-9.7.3-2.1.4-4.5.6-8.6h3.3v20.1h9.9V39.4h-20.8V42c0 2.2 0 4.8-.2 7.1-.3 5.1-.8 7.2-1.6 8.5-.9 1.6-2.2 1.8-3 1.9h-.8v7.1c1 .3 2 .3 3 .3 2.5-.1 4.2-.6 5.9-2.2zM450.9 67c2.7 0 6.2-.4 9.2-2.7 2.9-2.2 3.8-4.8 4.2-6.7l-9.2-.6c0 1.2-.6 2-1 2.5-.4.4-1.3 1.1-2.7 1.1-1.6 0-2.6-.7-3.2-1.6-.6-.9-1-2.3-.9-3.7h17.1v-1.6c0-2.3-.3-7-3.7-10.7-3.2-3.5-7-4.1-9.7-4.1-2.4 0-6.3.4-9.5 3.2-2.1 1.9-4.5 5.3-4.5 10.9 0 5 1.9 8.4 4 10.5 3.3 3 6.7 3.5 9.9 3.5zm-2.4-20.5c1-1.1 2-1.2 2.7-1.2.6 0 1.8.1 2.6 1.2.7.8 1 2.2.9 3.4h-7.3c-.1-1.3.4-2.6 1.1-3.4zM477.7 55.9h5.5v10.6h9.9V39.4h-9.9v9.4h-5.5v-9.4h-9.9v27.1h9.9zM507.6 55.9h5.5v10.6h10V39.4h-10v9.4h-5.5v-9.4h-9.9v27.1h9.9zM552.6 60.6V50c0-2.2 0-4.4-1-6.4-2.1-4.2-6.9-4.7-11.1-4.7-2.9 0-6.4.2-9.2 2.2-1.4 1-3.2 3.8-4 7.3h9c.1-.7 0-3.5 3.9-2.9 1.3.2 2.1.4 2.5.8.6.7.6 1.8.6 2.3v.4l-1.9.2c-3.8.3-9.2 1.1-12.1 3.6-2 1.6-2.9 4.1-2.9 6.5 0 3.6 2.4 7.9 9 7.9 5.1 0 7.4-2.7 8.4-4.3 0 1.9.1 3.1.3 3.8h9.3c-1-2.9-.8-4.6-.8-6.1zm-9.5-5.3c0 2-.3 5.3-4 5.3-1.8 0-2.8-1-2.8-2.4 0-.8.4-2 1.4-2.8.4-.3 1.4-1 3.8-1.4l1.6-.3v1.6zM567 39.4c-2.4 0-5.5.3-7.9 2.2-1.4 1.2-3 3.3-3 6.9 0 2.4.8 4.1 1.7 5.2.9 1.1 2.2 1.9 3.4 2.3l-5.8 10.6h10.5l4-9.2h2.1v9.2h9.9V39.4H567zm5 12.6h-2.1c-.9 0-2 0-2.8-.7-.5-.5-.9-1.3-.9-2.3 0-1.3.5-2 .9-2.3.8-.7 1.9-.8 2.5-.8h2.4V52z"/><path class="st2" d="M208.1 95.2c5 0 9.7 3.4 10.7 9.5h-15.5v3.6h15.6c-.7 5.8-5.3 10.2-10.8 10.2-3.4 0-7.3-1.5-9.3-5.6h-4.1c2.4 6.2 7.5 9.2 13.4 9.2 9.4 0 14.6-7.6 14.6-15.2 0-7.1-4.9-15.2-14.6-15.2-9.4 0-12.8 7.9-13.4 9.5h4.2c1.9-3.7 5.2-6 9.2-6zM227.1 92.4h3.7v29h-3.7zM240.7 92.4l-9.7 14.3 10 14.7h4.8l-11.2-15 10.5-14zM276 106.9c0-8.6-6.2-15.2-14.3-15.2-8.1 0-14.3 6.6-14.3 15.2s6.3 15.2 14.3 15.2 14.3-6.5 14.3-15.2zm-25 0c0-6.6 4.5-11.7 10.6-11.7 6.2 0 10.6 5.1 10.6 11.7s-4.5 11.6-10.6 11.6-10.6-5-10.6-11.6zM289.3 92.4l-11.7 29h4l9.6-24 9.6 24h4l-11.6-29zM335.2 106.9c0-8.6-6.2-15.2-14.3-15.2-8.1 0-14.3 6.6-14.3 15.2s6.3 15.2 14.3 15.2 14.3-6.5 14.3-15.2zm-25 0c0-6.6 4.5-11.7 10.6-11.7 6.2 0 10.6 5.1 10.6 11.7s-4.5 11.6-10.6 11.6-10.6-5-10.6-11.6zM339.5 121.4h3.7V95.9h10.6v-3.5h-14.3zM380.5 121.4v-29h-3.7l-16.4 23.4V92.4h-3.7v29h3.7l16.4-23.5v23.5zM405.7 121.4v-29H402v14.5h-7.1c-1.3 0-3.1.1-4.4-1.2-1.4-1.3-1.4-3.3-1.4-5.1v-8.2h-3.7v8.2c0 2.8.1 5.1 1.9 7.3 2.1 2.4 4.8 2.6 7.7 2.6h7.1v10.9h3.6zM424.4 91.7c-9.3 0-14.3 8.1-14.3 15.2 0 8.7 6.2 15.2 14.3 15.2 6.2 0 11.2-3.9 13.4-10.1H434c-1.7 4-5.3 6.6-9.6 6.6-5.8 0-10-4.5-10.4-10.2h24.5c0-7.6-3.7-16.7-14.1-16.7zm0 3.5c4.8 0 9 3.6 10.1 9.5H414c.9-5.5 5.1-9.5 10.4-9.5zM441.9 106.9c0 7.6 5.3 15.2 14.6 15.2 7.5 0 11.5-4.9 13.3-9.2h-4.1c-2 3.7-5.5 5.6-9.2 5.6-6 0-10.9-5.1-10.9-11.7 0-6.4 4.6-11.6 10.9-11.6 1.3 0 6.5.2 9.2 5.9h4.2c-2.2-5.7-7-9.5-13.4-9.5-9.6.1-14.6 8.3-14.6 15.3zM489.1 92.4l-10.7 14.3 11 14.7h4.7l-11.2-15 10.5-14zM474.5 92.4h3.7v29h-3.7zM528.6 101.9c0 5 5.5 8.9 10.2 9.2l-9.7 10.2h4.3l12.7-13.5-7.3.1c-4.6 0-6.4-2.6-6.4-5.8 0-6.2 5.6-6.2 6.4-6.2h7.4v25.5h3.7v-29h-11.1c-6.6 0-10.2 4.6-10.2 9.5zM209.2 177c8.4 0 14.1-6.2 14.1-14.7 0-9-5.8-14.7-14-14.7-1.7 0-8.4.5-11.4 7.5h-.1c.7-12.5 9.2-12.5 12.8-12.7l11.6-.6v-3.6l-11.6.6c-6.6.5-16.1 1.8-16.1 19.3 0 13.6 6.6 18.9 14.7 18.9zm0-25.9c6 0 10.4 4.4 10.4 11.1 0 6.2-4.2 11.1-10.4 11.1-6 0-10.4-4.8-10.4-11.1s4.4-11.1 10.4-11.1zM250.6 166.8c-1.7 4-5.3 6.6-9.6 6.6-5.8 0-10-4.5-10.4-10.2h24.5c.1-7.5-3.7-16.6-14.1-16.6-9.3 0-14.3 8.1-14.3 15.2 0 8.7 6.2 15.2 14.3 15.2 6.2 0 11.2-3.9 13.4-10.1h-3.8zm-9.6-16.7c4.8 0 9 3.6 10.1 9.5h-20.5c.9-5.5 5.2-9.5 10.4-9.5zM268 173.4c-3.9 0-6-2.3-6-5.5h-3.7c0 4.8 2.8 9 9.7 9 5.6 0 9.4-3.6 9.4-8.6 0-3.5-1.7-6.3-4.9-7.2 2.8-1.2 4.2-4 4.2-7 0-5.5-4.6-7.6-8.6-7.6-3.7 0-8.3 2-8.8 7.8h3.7c.4-2.4 2.1-4.2 5.3-4.2 3.3 0 4.7 2.2 4.7 4.6 0 2.6-1.6 4.9-5 4.9h-2.5v3.6h2.5c4.7 0 5.7 2.9 5.7 5.3 0 1.5-.8 4.9-5.7 4.9zM295 146.6c-8.1 0-14.3 6.6-14.3 15.2S287 177 295 177c8.1 0 14.3-6.5 14.3-15.2s-6.2-15.2-14.3-15.2zm0 26.8c-6.2 0-10.6-5-10.6-11.6s4.5-11.7 10.6-11.7c6.2 0 10.6 5.1 10.6 11.7s-4.4 11.6-10.6 11.6zM313.7 176.3h3.7v-25.5h15.4v25.5h3.7v-29h-22.8zM366.3 152.3c-3.4-5.4-8.5-5.7-10.9-5.7-9.8 0-14.6 8.1-14.6 15 0 9 6.5 15.4 14.7 15.4 6 0 9.1-3.6 10.7-6.1h.1v5.4h3.5l-.1-24h-3.4zm-10.7 21.1c-5.9 0-11-4.9-11-11.5 0-6.7 4.9-11.8 10.9-11.8 6.2 0 10.9 5.3 10.9 11.8-.1 6.4-4.8 11.5-10.8 11.5zM388.9 177c7.5 0 11.5-4.9 13.3-9.2h-4.1c-2 3.7-5.5 5.6-9.2 5.6-6 0-10.9-5.1-10.9-11.7 0-6.4 4.6-11.6 10.9-11.6 1.3 0 6.5.2 9.2 5.9h4.2c-2.2-5.7-7-9.5-13.4-9.5-9.6 0-14.6 8.2-14.6 15.2 0 7.6 5.2 15.3 14.6 15.3zM410.6 163.2H426v13.1h3.7v-29H426v12.3h-15.4v-12.3h-3.7v29h3.7zM448.4 177c8.1 0 14.3-6.5 14.3-15.2 0-8.6-6.2-15.2-14.3-15.2-8.1 0-14.3 6.6-14.3 15.2s6.2 15.2 14.3 15.2zm0-26.9c6.2 0 10.6 5.1 10.6 11.7s-4.5 11.6-10.6 11.6c-6.2 0-10.6-5-10.6-11.6s4.4-11.7 10.6-11.7zM480.7 150.1c1.3 0 6.5.2 9.2 5.9h4.2c-2.2-5.7-7-9.5-13.4-9.5-9.6 0-14.6 8.2-14.6 15.2 0 7.6 5.3 15.2 14.6 15.2 7.5 0 11.5-4.9 13.3-9.2h-4.1c-2 3.7-5.5 5.6-9.2 5.6-6 0-10.9-5.1-10.9-11.7 0-6.3 4.5-11.5 10.9-11.5zM503.2 176.3h3.7v-25.5h7.1v-3.5h-17.9v3.5h7.1zM528 158.3h-7.4v-11.1h-3.7v29H528c7.4 0 9.3-5.6 9.3-9 0-3.2-1.9-8.9-9.3-8.9zm-.1 14.4h-7.3v-10.8h7.3c3.9 0 5.7 2.6 5.7 5.4 0 2.8-1.8 5.4-5.7 5.4z"/><path class="st1" d="M207.3 203.5c-4.4 0-7.4 1.7-9.4 3.7-2.7 2.7-4.2 6.6-4.2 10.5 0 3.9 1.5 7.8 4.2 10.5 2 2 5 3.7 9.4 3.7s7.4-1.7 9.4-3.7c2.7-2.7 4.2-6.6 4.2-10.5 0-3.9-1.5-7.8-4.2-10.5-2-2-5-3.7-9.4-3.7zm2.7 19.7c-.6 1.4-1.5 2-2.7 2-1.4 0-2.2-.7-2.7-2-.7-1.5-.7-3.3-.7-5.7 0-2.8.1-4.4.7-5.7.6-1.3 1.5-2 2.7-2 1.2 0 2.1.6 2.7 2 .6 1.3.7 2.9.7 5.7 0 2.8-.1 4.5-.7 5.7zM248.7 204h-8.2l-3.6 6.6-3.4-6.6h-11.2l7.8 12.8-9 14.3h8.2l5.1-8.6 4.6 8.6h11.3l-9-14.8zM268.9 203.5c-2 0-4 .5-5.4 1.6-1 .7-1.8 1.8-2.4 2.9h-.1v-4h-9.2v35.8h9.9v-11.5h.1c.6 1 1.3 1.9 2.7 2.5 1.1.5 2.5.9 3.9.9 2.2 0 4.9-.7 7.1-3.9 2.2-3.1 2.7-7 2.7-10.5 0-2.9-.3-7-2.5-10.2-1.6-2.3-3.6-3.6-6.8-3.6zm-1.5 19.4c-.7 1.7-1.7 2.3-2.8 2.3-1.4 0-2-1-2.3-1.4-.5-.8-.6-2-.6-3.5v-5.9c0-1 0-2.4.9-3.3.5-.5 1.2-.8 1.9-.8 1 0 2.1.5 2.7 2 .5 1 .7 2.4.7 5.3.1 2.6-.1 4.2-.5 5.3zM326.3 213.4h-5.5V204h-9.9v27.1h9.9v-10.6h5.5v10.6h9.9V204h-9.9zM378.5 211.1h6.9v20h10v-20h6.9V204h-23.8zM421.4 203.5c-2 0-4 .5-5.4 1.6-1 .7-1.8 1.8-2.4 2.9h-.1v-4h-9.2v35.8h9.9v-11.5h.1c.6 1 1.3 1.9 2.7 2.5 1.1.5 2.5.9 3.9.9 2.2 0 4.9-.7 7.1-3.9 2.2-3.1 2.7-7 2.7-10.5 0-2.9-.3-7-2.5-10.2-1.7-2.3-3.7-3.6-6.8-3.6zm-1.6 19.4c-.7 1.7-1.7 2.3-2.8 2.3-1.4 0-2-1-2.3-1.4-.5-.8-.6-2-.6-3.5v-5.9c0-1 0-2.4.9-3.3.5-.5 1.2-.8 1.9-.8 1 0 2.1.5 2.7 2 .5 1 .7 2.4.7 5.3.1 2.6 0 4.2-.5 5.3zM450.4 204l-4.5 14.5-4.2-14.5h-10.8l9.6 26.9-.1.5c0 .5-.4.8-.7 1.1-.9.6-2.2.6-3.2.6-1.5 0-2.6-.1-4.1-.4v7.6c.5.1 2.5.4 4.9.4 2.1 0 4.5-.2 6.7-2 2.1-1.7 2.9-3.8 3.7-5.9l9.9-28.8h-7.2zM482.7 204h-20.3v1.8c0 9.2-.5 14-2.6 18.3h-2.5v14.2h8.9v-7.1h10.5v7.1h8.9V224h-3v-20zm-9.9 20h-5c1.1-3.3 1.6-6.7 1.6-12.1v-.8h3.4V224z"/><path class="st3" d="M181.2 233.9l-4.6-10.5 4.3 10.1z"/><path class="st3" d="M180.9 233.5l-4.3-10.1-50.2-114.1-.4.7 54.4 122.8z"/><path class="st1" d="M47.9 55.6c-.5.3-1.1.8-1.8 1.2l1.8-1.2zM59.5 39.9c.4-1.2.7-2.5 1-3.7-.3 1.1-.6 2.4-1 3.7zM54.2 49.7s-.3.5-2.3 2.5l-1.3 1.3c2.2-1.9 4.1-4.1 5.7-6.6-1.1 1.6-2 2.6-2.1 2.8zM41.6 58.9c-.8.3-1.6.6-2.2.8.7-.2 1.4-.5 2.2-.8zM29.6 29.3v-.1h31.3v.3C60.4 13.1 47 0 30.5 0 13.7 0 0 13.7 0 30.5c0 15.9 12.2 29 27.7 30.4-1.4-.2-2.5-.4-2.5-.4l4.4-31.2zM35.1 60.6l-.8.1c.5-.1.9-.1 1.4-.2-.2.1-.5.1-.6.1zM31.6 61c.8 0 1.5-.1 2.3-.2-.4 0-1.3.1-2.3.2zM29.6 29.2zM56.6 46.3z"/><path class="st1" d="M48.9 54.8L29.6 29.3l.1.3zM44.7 41.8L29.6 29.1v.1z"/><path class="st3" d="M104.6 130.1l6.6 9-6.6-9zM63.3 155v79l.1-62.7zM87.6 107.1l10.7-21.2L126 31l-38.4 76.1 12.5 16.9zM111.2 139.1L63.3 234 126 110z"/><path class="st1" d="M57 235v-.1l-.3-2.3z"/><path class="st4" d="M125.3 108.4l.7-.6V31L98.3 85.9z"/><path class="st4" d="M126 108.1v-.3l-.7.6.1.1z"/><path class="st5" d="M126 108.1l.5-.4.2-.2-.1-.2-.6.5z"/><path class="st5" d="M126 31v76.8l.6-.5.1.2L182 31z"/><path class="st3" d="M182 235.8v-.8h-.3zM126.7 107.6l.8-.6-.5 1.1 49.6 115.3 4.6 10.5.8 1.1V31l-55.3 76.5z"/><path class="st3" d="M176.6 223.4L127 108.1l-.6 1.2zM126.7 107.6v-.1l-.2.2z"/><path class="st6" d="M126 110v48.8l54.4 74z"/><path class="st7" d="M180.9 233.5l.2.4-.2-.4-.5-.7.8 2-55.2-76V235h55.7l-.5-1.1z"/><path class="st7" d="M181.7 235h.3l-.8-1.1zM180.4 232.8l-54.4-74 55.2 76z"/><path class="st8" d="M125.2 108.4l-11.4 8.7 11.6-8.5zM113.8 117.1l11.4-8.7-26.9-22.5-10.7 21.2 12.5 16.9 1.6 2.1z"/><path class="st8" d="M125.3 108.4l-27-22.5 26.9 22.5zM125.4 108.6v-.1l-.1-.1h-.1z"/><path class="st9" d="M126 108.5v-.1.1z"/><path class="st3" d="M126 108.5v1.5l.4-.7-.4-.8zM125.7 108.8l-21.1 21.3 6.6 9L126 110v-.9z"/><path class="st3" d="M126 109.1v-.6l-.3.3zM127 108.1l.5-1.1-.7.7z"/><path class="st3" d="M126 108.5l.4.8.6-1.2-.2-.4zM126 108.5zM104.6 130v.1l21.1-21.3zM125.7 108.8l.3-.3zM126.8 107.7l-.8.8zM126.8 107.7l.7-.7-.7.7z"/><path class="st10" d="M87.5 107l-24.2 48 24.3-47.9zM101.7 126.1l-1.6-2.1-12.5-16.9L63.3 155l38.3-28.9zM100.1 124l1.6 2.1z"/><path class="st10" d="M126.7 107.6l-.2.1-.5.4-.6.4v.1l-11.6 8.5-12.1 9h-.1l.1.1.1.1 2.8 3.8v-.1l21.1-21.2.3-.3v-.1.1l.8-.8.7-.7zM101.7 126.1z"/><path class="st11" d="M101.8 126.3l-.1-.1-.1-.1L63.3 155l.1 16.3 41.2-41.2z"/><path class="st12" d="M104.6 130.1l-41.2 41.2-.1 62.7 47.9-94.9z"/><path class="st13" d="M50.2 184.5L1 235h56l-.3-2.4z"/><path class="st14" d="M57.1 194.2v.1l-.1-.3-2.6-13.3-4.1 3.6 6.4 48.3.3 2.3.1-40.6z"/><path class="st14" d="M56.7 232.6l-6.4-48.3-.1.2z"/><path class="st15" d="M35.2 69.5l-.2-1.7s-3-.5-5-.5c-2.3 0-5.3.2-5.3.2l-.3 1.9L1 235l49.2-50.5-15-115zM50.2 184.5L1 235l49.2-50.5z"/><path class="st16" d="M10.4 74.3C2.1 82.6.9 91.5.9 91.5L1 235 24.4 69.4l.3-1.9s-9.1 1.6-14.3 6.8zM50.3 184.3l-.1.2.1-.2zM55 180.1L36.8 69.8l-.3-1.6-1.5-.4.2 1.7 15 115 .1-.2 4.1-3.6.1-.1zM50.2 184.5l.1-.2z"/><path class="st17" d="M57 131.4v.6L41.2 71.1l-.3-1.3s-.7-.4-2.2-.9c-1.1-.4-2.2-.7-2.2-.7l.3 1.7L55 180.1l2-2.1v-46.6z"/><path class="st18" d="M51.7 78.9c-3.9-5.6-10.9-9-10.9-9l.3 1.3L57 131.4l.1-8.1.1-29.3s-.3-7.7-5.5-15.1zM41.2 71.1l-.3-1.3.3 1.3z"/><path class="st18" d="M57 131.4L41.2 71.1 57 131.9z"/><path class="st4" d="M60.5 36.2c.7-3.7.6-6.1.5-6.8v1.1c0 1.9-.2 3.8-.5 5.7zM59.3 40.5c.1-.2.1-.4.2-.6-.7 2.3-1.7 4.4-2.9 6.4 1-1.5 2-3.5 2.7-5.8zM56.6 46.3c-.1.2-.2.4-.4.6.1-.2.3-.4.4-.6z"/><path class="st4" d="M61 30.5v-1.1-.3H29.6l15.1 12.7 9.4 7.9c.1-.2 1-1.2 2.1-2.8.1-.2.3-.4.4-.6 1.2-2 2.2-4.1 2.9-6.4.4-1.4.7-2.6 1-3.7.3-1.9.5-3.8.5-5.7z"/><path class="st8" d="M48.9 54.9s.8-.6 1.6-1.4c-.5.5-1 .9-1.6 1.4zM51.9 52.2c2-2.1 2.3-2.5 2.3-2.5l-9.4-7.9-15.2-12.6 19.2 25.6c.6-.4 1.1-.9 1.7-1.4.5-.3.9-.7 1.4-1.2zM29.6 29.2z"/><path class="st8" d="M54.2 49.7l-9.4-7.9 9.4 7.9c-.1 0-.1 0 0 0z"/><path class="st18" d="M43.4 58.2c.8-.4 1.8-.9 2.7-1.5-1.4.8-2.9 1.6-4.5 2.2.6-.2 1.2-.4 1.8-.7zM47.9 55.6c.6-.4 1-.7 1-.7-.3.2-.7.4-1 .7zM37.9 60.1s.6-.2 1.4-.4c-.4.1-.9.3-1.4.4z"/><path class="st18" d="M29.7 29.6l8.2 30.5c.5-.1 1-.3 1.4-.4.6-.2 1.4-.5 2.2-.8 1.6-.6 3.1-1.3 4.5-2.2.7-.4 1.3-.8 1.8-1.2.3-.2.7-.5 1-.7L29.7 29.6z"/><path class="st17" d="M35.7 60.6c.2 0 .4-.1.6-.1.8-.1 1.6-.3 1.6-.3-.7.1-1.5.2-2.2.4zM29.6 29.2v.1-.1zM29.7 29.7l5.4 30.9c.2 0 .4 0 .6-.1.8-.1 1.5-.3 2.2-.5l-8.2-30.3zM37.9 60.1z"/><path class="st17" d="M37.9 60.1l-8.2-30.5v.1z"/><path class="st15" d="M27.7 60.9c.6.1 1.2.1 1.9.1h2-1.1c-.9 0-1.9 0-2.8-.1zM29.6 29.2l.1.3-.1-.3z"/><path class="st15" d="M29.8 30.5l-.2-1.2-4.4 31.2s1.1.2 2.5.4c.9.1 1.9.1 2.8.1h1.1c1 0 1.8-.1 2.3-.2l-4.1-30.3zM29.6 29.2v-.1.1zM29.6 29.2z"/><path class="st15" d="M29.6 29.2v.1l.2 1.2-.1-1z"/><path class="st12" d="M57 193.8l.1.4-.1-13.6z"/><path class="st12" d="M57 194l.1.3v-.1l-.1-.4zM54.4 180.7L57 194v-.2l-2.5-13.2zM54.5 180.6l-.1.1.1-.1zM57 178l-2 2.1-.5.5 2.5 13.2v-13.2z"/><path class="st16" d="M33.9 60.8l.4-.1c-.1.1-.2.1-.4.1zM29.6 29.2v-.1.1zM29.7 29.5v.1l-.1-.3v-.1zM29.6 29.2v.1-.1zM29.7 29.6zM29.7 29.6v-.1.1zM29.7 29.6v.1-.1zM29.7 29.5l-.1-.3zM29.6 29.2v-.1.1z"/><path class="st16" d="M35.1 60.6l-5.4-30.9v-.1l.3 1.8-.2-.9 4.1 30.3c.1 0 .3 0 .4-.1l.8-.1zM29.6 29.2z"/><path class="st16" d="M29.7 29.6v-.1l.1 1 .2.9-.3-1.8zM29.7 29.6z"/><path class="st2" d="M510.9 122.3c6 0 9.1-3.6 10.7-6.1h.1v5.4h3.5l-.1-24h-3.5c-3.3-5.4-8.4-5.7-10.8-5.7-9.8 0-14.6 7.1-14.6 14 0 9 6.5 16.4 14.7 16.4zm-.1-26.9c6.2 0 10.9 5.3 10.9 11.8 0 6.4-4.8 11.5-10.8 11.5-5.9 0-11-4.9-11-11.5 0-6.7 4.9-11.8 10.9-11.8z"/><path class="st1" d="M515.1 225.8v-10.6c0-2.2 0-4.4-1-6.4-2.1-4.2-6.9-4.7-11.1-4.7-2.9 0-6.4.2-9.2 2.2-1.4 1-3.2 3.8-4 7.3h9c.1-.7 0-3.5 3.9-2.9 1.3.2 2.1.4 2.5.8.6.7.6 1.8.6 2.3v.4l-1.9.2c-3.8.3-9.2 1.1-12.1 3.6-2 1.6-2.9 4.1-2.9 6.5 0 3.6 2.4 7.9 9 7.9 5.1 0 7.4-2.7 8.4-4.3 0 1.9.1 3.1.3 3.8h9.3c-1-2.8-.8-4.5-.8-6.1zm-9.5-5.2c0 2-.3 5.3-4 5.3-1.8 0-2.8-1-2.8-2.4 0-.8.4-2 1.4-2.8.4-.3 1.4-1 3.8-1.4l1.6-.3v1.6zM365 224.9v-10.6c0-2.2 0-4.4-1-6.4-2.1-4.2-6.9-4.7-11.1-4.7-2.9 0-6.4.2-9.2 2.2-1.4 1-3.2 3.8-4 7.3h9c.1-.7 0-3.5 3.9-2.9 1.3.2 2.1.4 2.5.8.6.7.6 1.8.6 2.3v.4l-1.9.2c-3.8.3-9.2 1.1-12.1 3.6-2 1.6-2.9 4.1-2.9 6.5 0 3.6 2.4 7.9 9 7.9 5.1 0 7.4-2.7 8.4-4.3 0 1.9.1 3.1.3 3.8h9.3c-1.1-2.8-.8-4.5-.8-6.1zm-9.6-5.2c0 2-.3 5.3-4 5.3-1.8 0-2.8-1-2.8-2.4 0-.8.4-2 1.4-2.8.4-.3 1.4-1 3.8-1.4l1.6-.3v1.6zM307.3 224.9v-10.6c0-2.2 0-4.4-1-6.4-2.1-4.2-6.9-4.7-11.1-4.7-2.9 0-6.4.2-9.2 2.2-1.4 1-3.2 3.8-4 7.3h9c.1-.7 0-3.5 3.9-2.9 1.3.2 2.1.4 2.5.8.6.7.6 1.8.6 2.3v.4l-1.9.2c-3.8.3-9.2 1.1-12.1 3.6-2 1.6-2.9 4.1-2.9 6.5 0 3.6 2.4 7.9 9 7.9 5.1 0 7.4-2.7 8.4-4.3 0 1.9.1 3.1.3 3.8h9.3c-1.1-2.8-.8-4.6-.8-6.1zm-9.5-5.2c0 2-.3 5.3-4 5.3-1.8 0-2.8-1-2.8-2.4 0-.8.4-2 1.4-2.8.4-.3 1.4-1 3.8-1.4l1.6-.3v1.6z"/></svg>