<svg xmlns="http://www.w3.org/2000/svg" viewBox="0 0 509.287 509.287"><circle cx="254.644" cy="254.644" r="254.644" fill="#76d95b"/><path d="M503.862 112.572l-8.816-14.58H14.241l-8.816 14.58v305.505h222.771c4.747 9.833 14.919 16.954 26.448 16.954 11.528 0 22.04-6.781 26.448-16.954h222.771V112.572z" fill="#393d47"/><path d="M495.046 98.331H14.241v310.93h221.754c1.695 8.816 9.494 15.597 18.988 15.597s17.293-6.781 18.988-15.597h221.754V98.331h-.679z" fill="#4f5565"/><path d="M254.644 392.646c-71.205-20.683-146.479-20.683-217.685 0V88.837c71.205-20.683 146.479-20.683 217.685 0v303.809z" fill="#fcfcfd"/><g fill="#f1f3f7"><path d="M214.972 146.479c-45.097-13.224-93.245-13.224-138.342 0v-14.58c45.097-13.224 93.245-13.224 138.342 0v14.58zM214.972 197.34c-45.097-13.224-93.245-13.224-138.342 0v-14.58c45.097-13.224 93.245-13.224 138.342 0v14.58zM214.972 248.201c-45.097-13.224-93.245-13.224-138.342 0v-14.58c45.097-13.224 93.245-13.224 138.342 0v14.58zM214.972 298.723c-45.097-13.224-93.245-13.224-138.342 0v-14.58c45.097-13.224 93.245-13.224 138.342 0v14.58zM214.972 349.584c-45.097-13.224-93.245-13.224-138.342 0v-14.58c45.097-13.224 93.245-13.224 138.342 0v14.58zM472.328 392.646c-71.205-20.683-146.479-20.683-217.685 0V88.837c71.205-20.683 146.479-20.683 217.685 0v303.809z"/></g><g fill="#dededf"><path d="M432.657 146.479c-45.097-13.224-93.245-13.224-138.342 0v-14.58c45.097-13.224 93.245-13.224 138.342 0v14.58zM432.657 197.34c-45.097-13.224-93.245-13.224-138.342 0v-14.58c45.097-13.224 93.245-13.224 138.342 0v14.58zM432.657 248.201c-45.097-13.224-93.245-13.224-138.342 0v-14.58c45.097-13.224 93.245-13.224 138.342 0v14.58zM432.657 298.723c-45.097-13.224-93.245-13.224-138.342 0v-14.58c45.097-13.224 93.245-13.224 138.342 0v14.58zM432.657 349.584c-45.097-13.224-93.245-13.224-138.342 0v-14.58c45.097-13.224 93.245-13.224 138.342 0v14.58z"/></g></svg>