<svg id="Слой_1" xmlns="http://www.w3.org/2000/svg" viewBox="0 0 203 80"><style>.st0{fill:#1d1d1b}.st1,.st2,.st3,.st4,.st5{fill-rule:evenodd;clip-rule:evenodd;fill:#ececec}.st2,.st3,.st4,.st5{fill:url(#SVGID_1_)}.st3,.st4,.st5{fill:url(#SVGID_2_)}.st4,.st5{fill:url(#SVGID_3_)}.st5{fill:url(#SVGID_4_)}</style><path class="st0" d="M100.7 48.8V38c0-.2 0-.4-.1-.5-.1-.2-.2-.3-.4-.4-.2-.1-.4-.2-.7-.2h-8.9c-.3 0-.6.1-.7.2-.2.1-.3.3-.4.4-.1.2-.1.3-.1.5v10.8c0 .2 0 .3.1.3.1.1.2.1.4.1h1.9c.2 0 .3 0 .4-.1.1-.1.1-.2.1-.3v-9.6h5.6v9.6c0 .2 0 .3.1.3.1.1.2.1.4.1h1.9c.2 0 .3 0 .4-.1v-.3zM82.2 46.7c-1 0-1.8-.2-2.5-.5s-1.2-.7-1.6-1.3c-.4-.5-.7-1.2-.8-1.9-.2-.7-.2-1.5-.2-2.3 0-.7.1-1.3.2-1.9.1-.6.3-1.2.6-1.7s.6-1 1-1.4c.4-.4.9-.7 1.4-.9.5-.2 1.1-.3 1.8-.3s1.3.1 1.9.2c.6.1 1.2.3 1.7.5.1.1.2.1.3.1.1 0 .1 0 .2-.1 0-.1.1-.1.1-.3l.7-1.4c.1-.2.1-.3.1-.4 0-.1 0-.2-.1-.2-.1-.1-.1-.1-.2-.1-.6-.3-1.1-.5-1.7-.7-.6-.1-1.1-.3-1.6-.3-.5-.1-1.1-.1-1.6-.1-1.2 0-2.3.2-3.3.7-1 .4-1.9 1-2.6 1.9-.7.8-1.3 1.8-1.7 2.9-.4 1.1-.6 2.4-.6 3.7 0 2.9.7 5.1 2 6.6s3.3 2.2 5.9 2.2c.6 0 1.3 0 1.9-.1.7-.1 1.3-.2 1.9-.4.6-.2 1.3-.4 1.8-.8.1-.1.2-.1.2-.2s.1-.1.1-.2-.1-.2-.1-.4l-.7-1.4c0-.1-.1-.2-.2-.3-.1-.1-.3 0-.5.1-.4.1-.8.3-1.2.4-.4.1-.9.2-1.3.3-.3-.1-.8 0-1.3 0zM108.1 38.9c.5 0 1 .1 1.4.2.4.2.6.4.8.6.2.3.3.6.4 1 .1.4.1.8.1 1.2h-5.6c0-.4.1-.8.2-1.1.1-.4.3-.7.6-1 .3-.3.6-.5.9-.7.4-.1.8-.2 1.2-.2zm0-2.3c-.9 0-1.6.1-2.4.4-.7.3-1.3.7-1.9 1.3-.5.6-.9 1.2-1.2 2-.3.8-.4 1.7-.4 2.8 0 1.5.2 2.7.7 3.6.5.9 1.2 1.6 2.1 2.1.9.4 2 .7 3.3.7.5 0 .9 0 1.4-.1.5-.1.9-.2 1.4-.3.5-.1.9-.3 1.3-.6.1-.1.2-.1.2-.2V48l-.7-1.3c0-.1-.1-.2-.2-.2s-.2 0-.3.1c-.4.2-.8.3-1.3.4-.5.1-1 .2-1.5.2-.6 0-1.2-.1-1.7-.3-.5-.2-.9-.5-1.2-1-.3-.5-.5-1.1-.5-1.9h6.5c.4 0 .7-.1 1-.2.3-.1.5-.3.7-.6.2-.3.3-.7.3-1.3 0-1.1-.2-2-.6-2.8-.4-.8-1-1.4-1.8-1.8-.9-.5-2-.7-3.2-.7zM126.4 47v-9.6c0-.2 0-.3-.1-.4-.1-.1-.2-.1-.4-.1H124c-.2 0-.3 0-.4.1-.1.1-.1.2-.1.4V47h-5.4v-9.7-.3c0-.1-.1-.1-.1-.1h-2.1c-.2 0-.3 0-.4.1-.1.1-.1.2-.1.4v10.5c0 .5.1.8.3 1 .2.2.5.4 1 .4h8.6l.1 3.3c0 .1 0 .2.1.2.1.1.1.1.2.1h1.8c.1 0 .2 0 .2-.1.1-.1.1-.1.1-.2l.3-4.6v-.4c0-.1-.1-.2-.2-.3-.1-.1-.3-.1-.5-.2l-1-.1zM135.3 47.2c-.7 0-1.2-.1-1.7-.2-.4-.1-.8-.4-1-.7-.2-.3-.4-.7-.5-1.1-.1-.5-.1-1-.1-1.6v-6.3c0-.2 0-.3-.1-.3-.1-.1-.2-.1-.4-.1h-1.9c-.2 0-.3 0-.4.1-.1.1-.1.2-.1.3v6.2c0 1.1.1 2 .3 2.8.2.8.6 1.4 1 1.9.5.5 1.1.8 1.9 1 .8.2 1.7.3 2.8.3h1.6c.3 0 .6 0 .9-.1.3 0 .5-.1.7-.1.6-.1 1-.3 1.3-.6.3-.3.4-.8.4-1.3V37.3c0-.2 0-.3-.1-.3-.1-.1-.2-.1-.4-.1h-1.9c-.2 0-.3 0-.4.1-.1.1-.1.2-.1.3V47c-.4.1-.8.1-1.2.1-.2.1-.4.1-.6.1zM152.8 47.9v-7c0-.9-.2-1.7-.5-2.3-.4-.6-.9-1.1-1.6-1.4-.7-.3-1.7-.5-2.8-.5-.5 0-1 0-1.5.1-.5 0-1 .1-1.6.2-.5.1-1 .2-1.5.4-.2.1-.3.2-.2.5l.3 1.3c0 .1.1.2.2.3h.4c.3-.1.6-.2 1-.2.4-.1.8-.1 1.2-.2.4 0 .8-.1 1.2-.1.5 0 .9.1 1.3.2.3.1.6.2.8.4.2.2.3.4.4.7.1.3.1.5.1.8v.4h-2.7c-1 0-1.8.1-2.5.3-.7.2-1.2.5-1.7.9-.4.4-.7.8-.9 1.3-.2.5-.3 1-.3 1.6 0 .5.1 1 .2 1.5.2.5.5.9.9 1.2.4.4 1 .6 1.7.8.7.2 1.6.3 2.7.3.5 0 1.1 0 1.7-.1.6 0 1.2-.1 1.7-.3.6-.1 1.1-.3 1.6-.5.2-.1.3-.2.4-.3v-.3zm-2.9-4.5v3.5c-.2.1-.4.1-.7.2-.2.1-.5.1-.7.1-.2 0-.5 0-.7.1h-.5c-.5 0-1-.1-1.4-.2-.4-.1-.7-.3-.9-.6-.2-.3-.3-.6-.3-1.1 0-.5.1-.8.3-1.1.2-.3.4-.5.7-.6l.9-.3c.3 0 .6-.1.9-.1h2.4zM165.2 36.9h-6.4c-.4 0-.8.1-1 .3-.2.2-.4.5-.4 1l-.2 2.5c-.1 1.1-.2 1.9-.2 2.7-.1.7-.2 1.3-.3 1.8-.1.5-.3.9-.4 1.1-.2.3-.4.5-.6.7-.2.2-.5.3-.8.5-.1.1-.2.1-.3.2-.1.1-.1.1-.1.2s0 .2.1.3l.5 1.3c0 .1.1.2.2.3.1 0 .3 0 .5-.1.7-.2 1.2-.4 1.7-.7.5-.3.8-.7 1.1-1.1.3-.4.5-1 .7-1.6.2-.6.3-1.4.4-2.3.1-.9.2-1.9.3-3.1l.1-1.5h3.8V49c0 .2 0 .3.1.3.1.1.2.1.4.1h1.8c.2 0 .3 0 .4-.1.1-.1.1-.2.1-.3V38.2c0-.3 0-.6-.1-.8-.1-.2-.2-.3-.4-.4-.4-.1-.7-.1-1-.1zM174.4 47.2c-.7 0-1.2-.1-1.7-.2-.4-.1-.8-.4-1-.7-.2-.3-.4-.7-.5-1.1-.1-.5-.1-1-.1-1.6v-6.3c0-.2 0-.3-.1-.3-.1-.1-.2-.1-.4-.1h-1.9c-.2 0-.3 0-.4.1-.1.1-.1.2-.1.3v6.2c0 1.1.1 2 .3 2.8.2.8.6 1.4 1 1.9.5.5 1.1.8 1.9 1 .8.2 1.7.3 2.8.3h1.6c.3 0 .6 0 .9-.1.3 0 .5-.1.7-.1.6-.1 1-.3 1.3-.6.3-.3.4-.8.4-1.3V37.3c0-.2 0-.3-.1-.3-.1-.1-.2-.1-.4-.1h-1.9c-.2 0-.3 0-.4.1-.1.1-.1.2-.1.3V47c-.4.1-.8.1-1.2.1-.1.1-.4.1-.6.1zM186.8 47.1c-.6 0-1.1-.1-1.6-.3-.4-.2-.7-.5-1-.8-.2-.4-.4-.8-.5-1.3-.1-.5-.1-1-.1-1.5s.1-1.1.2-1.5c.1-.5.3-.9.6-1.3.2-.4.6-.7 1-.9.4-.2.9-.3 1.4-.3.5 0 .9.1 1.4.2.4.1.8.2 1.2.4.2.1.3.1.4.1.1 0 .2-.1.2-.2l.6-1.4c.1-.1.1-.3.1-.3 0-.1-.1-.2-.3-.2-.6-.3-1.1-.5-1.8-.6-.6-.1-1.3-.2-2-.2-.9 0-1.7.2-2.5.5-.7.3-1.3.7-1.9 1.3-.5.6-.9 1.3-1.2 2.1-.3.8-.4 1.7-.4 2.7 0 1.4.2 2.6.7 3.5.4.9 1.1 1.6 1.9 2.1.8.5 1.9.7 3.1.7.5 0 .9 0 1.4-.1.5 0 1-.1 1.5-.3.5-.1 1-.3 1.4-.6.1-.1.2-.2.2-.3 0-.1 0-.2-.1-.3l-.6-1.4c0-.1-.1-.2-.2-.2s-.2 0-.4.1-.5.2-.8.3c-.3.1-.6.2-1 .2-.2-.3-.5-.2-.9-.2zM198.8 39.2h3.7c.2 0 .3 0 .4-.1.1-.1.1-.2.1-.3v-1.3c0-.2 0-.3-.1-.4-.1-.1-.2-.1-.4-.1h-10.1c-.2 0-.3 0-.4.1-.1.1-.1.2-.1.4v1.3c0 .2 0 .3.1.3.1.1.2.1.4.1h3.6v9.6c0 .2 0 .3.1.4.1.1.2.1.4.1h1.8c.2 0 .3 0 .4-.1.1-.1.1-.2.1-.4v-9.6z"/><g><path class="st0" d="M78.8 23.9h-.3v-5.3-.1h-.6-.1V23.9h-3.1v-5.3-.1h-.6-.1v5.6c0 .2 0 .3.1.4.1.1.2.1.4.1h4V26h.6v-.1l.1-1.7v-.1s0-.1-.1-.1-.2-.1-.3-.1zm2.8-3.9c-.3 0-.6.1-.8.2-.2.1-.5.3-.6.5-.2.2-.3.5-.4.8-.1.3-.2.6-.2 1 0 .5.1 1 .3 1.3.2.4.4.6.7.8.3.2.7.3 1.1.2h.5c.2 0 .3-.1.5-.1s.3-.1.4-.2c0 0 .1 0 .1-.1v-.1l-.2-.4s0-.1-.1-.1h-.1c-.1 0-.2.1-.3.1-.1 0-.2.1-.4.1h-.4c-.2 0-.4 0-.5-.1-.2-.1-.3-.1-.4-.3-.1-.1-.2-.3-.3-.5-.1-.2-.1-.4-.1-.7h2.5c.1 0 .2 0 .3-.1.1 0 .2-.1.2-.2.1-.1.1-.2.1-.4 0-.3 0-.6-.1-.8l-.3-.6c-.2-.2-.4-.3-.6-.4-.3.1-.6.1-.9.1zm1.2 2h-2.4c0-.2 0-.4.1-.5.1-.2.1-.3.2-.4.1-.1.2-.2.4-.3.1-.1.3-.1.5-.1s.4 0 .6.1c.2.1.3.2.4.3.1.1.2.3.2.4v.5zm2.3 2.5v-2h2.3v2.1h.6V20.2v-.1h-.6v1.8h-2.3v-1.7-.1h-.6V24.6h.6c-.1 0 0 0 0-.1zm5.7 0v-3.8h1.5v-.4-.1h-3.7v.5h1.5v3.9h.6c.1 0 .1 0 .1-.1zm6.1-2.2c0-.3 0-.7-.1-1-.1-.3-.2-.5-.4-.8-.2-.2-.4-.4-.6-.5h-1.6c-.2 0-.4.1-.6.1-.2 0-.4.1-.6.2 0 0-.1 0-.1.1v6.1h.7v-1.8c.2.1.4.1.6.1h.5c.3 0 .6-.1.9-.2.3-.1.5-.3.6-.5.2-.2.3-.5.4-.8.2-.3.3-.6.3-1zm-.8 0c0 .4-.1.8-.2 1-.1.3-.3.4-.5.6-.2.1-.4.2-.7.2h-.6c-.1 0-.3-.1-.4-.1v-3.2c.1 0 .2-.1.3-.1.1 0 .2 0 .4-.1h.3c.3 0 .5.1.7.2.2.1.4.3.5.5.1.3.2.6.2 1zM100 24h-.2c-.1 0-.1 0-.2.1l-.1.1v.1l.1 1.6v.1h.7v-.1l.1-1.3h3.3l.1 1.3v.1h.7v-.1l.1-1.6v-.1s0-.1-.1-.1c0 0-.1-.1-.2-.1h-.3v-3.6-.2c0-.1-.1-.1-.1-.1-.1 0-.2-.1-.3-.1h-2.2c-.2 0-.3 0-.4.1-.1.1-.1.2-.2.3l-.3 2.1c0 .2-.1.4-.1.6 0 .2-.1.3-.2.5 0 .2-.1.3-.2.4zm3.2-3.3V24h-2.4c0-.1.1-.1.1-.2s.1-.1.1-.2.1-.2.1-.3c0-.1.1-.3.1-.5s.1-.4.1-.7l.2-1.4h1.7zm2-.5v4.1c0 .1 0 .2.1.3.1.1.1.1.3.1h.4s.1 0 .1-.1c0 0 .1-.1.1-.2l1.4-2.1c.1-.1.2-.3.3-.4.1-.1.1-.2.2-.4.1-.1.2-.2.2-.4h.1v3.4h.7V20.3c0-.1 0-.2-.1-.3-.1-.1-.1-.1-.3-.1h-.4s-.1 0-.1.1c0 0-.1.1-.1.2l-1.3 2c-.1.1-.2.3-.3.4-.1.1-.2.3-.2.4-.1.1-.2.3-.3.4V20v-.1h-.6-.1c-.1.2-.1.2-.1.3zm6.8 3.9c-.3 0-.5 0-.6-.1-.2-.1-.3-.2-.4-.4-.1-.2-.2-.3-.2-.5s-.1-.4-.1-.7c0-.2 0-.5.1-.7.1-.2.1-.4.2-.6.1-.2.2-.3.4-.4.2-.1.4-.1.6-.1.2 0 .4 0 .5.1.2 0 .3.1.5.2h.1l.1-.1.2-.4c0-.1 0-.1-.1-.2-.2-.1-.4-.2-.6-.2-.2 0-.4-.1-.7-.1-.4 0-.8.1-1.1.3-.3.2-.5.5-.7.8-.2.4-.3.8-.3 1.3 0 .8.2 1.4.5 1.8.3.4.8.6 1.5.6h.5c.2 0 .3-.1.5-.1s.3-.1.5-.2c0 0 .1 0 .1-.1v-.1l-.2-.4s0-.1-.1-.1h-.1c-.1 0-.2.1-.3.1-.1 0-.2.1-.4.1-.1.2-.3.2-.4.2zm3.9.4v-3.8h1.5v-.4-.1h-3.7v.5h1.5v3.9h.6c.1 0 .1 0 .1-.1zm5.6-.3v-2.7c0-.3-.1-.6-.2-.8-.1-.2-.3-.4-.6-.5-.2-.1-.6-.2-1-.2h-.5c-.2 0-.4 0-.5.1-.2 0-.3.1-.5.1 0 0-.1 0-.1.1v.1l.1.4s0 .1.1.1h.1c.1 0 .2-.1.4-.1.1 0 .3 0 .4-.1h.4c.2 0 .4 0 .5.1.1 0 .2.1.3.2.1.1.1.2.2.3V21.9h-1.1c-.3 0-.6 0-.9.1s-.4.2-.6.3c-.2.1-.3.3-.3.5-.1.2-.1.4-.1.6 0 .2 0 .4.1.6.1.2.2.3.3.5.1.1.3.2.6.3.2.1.6.1.9.1h.6c.2 0 .4 0 .6-.1.2 0 .4-.1.6-.2 0 0 .1 0 .1-.1.1-.2.1-.2.1-.3zm-.7-1.8V24c-.1 0-.2.1-.3.1-.1 0-.2 0-.3.1h-.5c-.2 0-.4 0-.6-.1-.2 0-.3-.1-.4-.3-.1-.1-.1-.3-.2-.5 0-.2 0-.3.1-.4.1-.1.1-.2.2-.3.1-.1.2-.1.3-.1.1 0 .2-.1.3-.1H120.8zm2.5 2.1v-2h2.3v2.1h.6V20.2v-.1h-.6v1.8h-2.3v-1.7-.1h-.6V24.6h.6v-.1zm7.8-.5v-3.8-.1h-.6V24h-2.3v-3.8-.1h-.6v4.1c0 .1 0 .3.1.3.1.1.2.1.3.1h3.1V26h.7v-.1l.1-1.6v-.1s0-.1-.1-.1c0 0-.1-.1-.2-.1h-.5zm1.2-3.8v4.1c0 .1 0 .2.1.3.1.1.1.1.3.1h.4s.1 0 .1-.1c0 0 .1-.1.1-.2l1.4-2.1c.1-.1.2-.3.3-.4.1-.1.1-.2.2-.4.1-.1.2-.2.2-.4h.1v3.4h.7V20.3c0-.1 0-.2-.1-.3-.1-.1-.1-.1-.3-.1h-.4s-.1 0-.1.1c0 0-.1.1-.1.2l-1.3 2c-.1.1-.2.3-.3.4-.1.1-.2.3-.2.4-.1.1-.2.3-.3.4V20v-.1h-.6-.1c-.1.2-.1.2-.1.3zm8.8 2.1c0-.5-.1-.9-.2-1.3-.2-.4-.4-.6-.7-.8-.3-.2-.7-.3-1.1-.3-.3 0-.6.1-.8.2-.2.1-.5.3-.6.5-.2.2-.3.5-.4.8-.1.3-.2.6-.2 1 0 .8.2 1.4.5 1.8.3.4.8.6 1.5.6.4 0 .8-.1 1.1-.3.3-.2.5-.5.7-.8.1-.4.2-.8.2-1.4zm-.8.1c0 .2 0 .4-.1.6 0 .2-.1.4-.2.6-.1.2-.2.3-.4.4-.2.1-.4.1-.6.1-.2 0-.4 0-.6-.1-.2-.1-.3-.2-.4-.4-.1-.2-.2-.3-.2-.6 0-.2-.1-.5-.1-.7 0-.2 0-.5.1-.7.1-.2.1-.4.2-.6.1-.2.2-.3.4-.4.2-.1.4-.1.6-.1.3 0 .5.1.6.1.2.1.3.2.4.4.1.2.2.4.2.6.1.3.1.5.1.8zm2.4 2.1v-2h2.3v2.1h.6V20.2v-.1h-.6v1.8h-2.3v-1.7-.1h-.6V24.6h.6v-.1zm4.8 0v-2h2.3v2.1h.6V20.2v-.1h-.6v1.8h-2.3v-1.7-.1h-.6V24.6h.6v-.1zm7.9-2.2c0-.5-.1-.9-.2-1.3-.2-.4-.4-.6-.7-.8-.3-.2-.7-.3-1.1-.3-.3 0-.6.1-.8.2-.2.1-.5.3-.6.5-.2.2-.3.5-.4.8-.1.3-.2.6-.2 1 0 .8.2 1.4.5 1.8.3.4.8.6 1.5.6.4 0 .8-.1 1.1-.3.3-.2.5-.5.7-.8.1-.4.2-.8.2-1.4zm-.8.1c0 .2 0 .4-.1.6 0 .2-.1.4-.2.6-.1.2-.2.3-.4.4-.2.1-.4.1-.6.1-.2 0-.4 0-.6-.1-.2-.1-.3-.2-.4-.4-.1-.2-.2-.3-.2-.6 0-.2-.1-.5-.1-.7 0-.2 0-.5.1-.7.1-.2.1-.4.2-.6.1-.2.2-.3.4-.4.2-.1.4-.1.6-.1.3 0 .5.1.6.1.2.1.3.2.4.4.1.2.2.4.2.6.1.3.1.5.1.8zm3-1.7H159.5v-.4-.1H157.6c-.3 0-.5 0-.7.1-.2.1-.3.2-.4.3-.1.1-.2.3-.2.4 0 .2-.1.3-.1.5v3.2h.6V21.4c0-.2 0-.4.1-.5.3-.1.5-.2.7-.2zm6.4 1.6c0-.5-.1-.9-.2-1.3-.2-.4-.4-.6-.7-.8-.3-.2-.7-.3-1.1-.3-.3 0-.6.1-.8.2-.2.1-.5.3-.6.5-.2.2-.3.5-.4.8-.1.3-.2.6-.2 1 0 .8.2 1.4.5 1.8.3.4.8.6 1.5.6.4 0 .8-.1 1.1-.3.3-.2.5-.5.7-.8.1-.4.2-.8.2-1.4zm-.8.1c0 .2 0 .4-.1.6 0 .2-.1.4-.2.6-.1.2-.2.3-.4.4-.2.1-.4.1-.6.1-.2 0-.4 0-.6-.1-.2-.1-.3-.2-.4-.4-.1-.2-.2-.3-.2-.6 0-.2-.1-.5-.1-.7 0-.2 0-.5.1-.7.1-.2.1-.4.2-.6.1-.2.2-.3.4-.4.2-.1.4-.1.6-.1.3 0 .5.1.6.1.2.1.3.2.4.4.1.2.2.4.2.6.1.3.1.5.1.8zm7.9-.1c0-.5-.1-.9-.2-1.3-.2-.4-.4-.6-.7-.8-.3-.2-.7-.3-1.1-.3-.3 0-.6.1-.8.2-.2.1-.5.3-.6.5-.2.2-.3.5-.4.8-.1.3-.2.6-.2 1 0 .8.2 1.4.5 1.8.3.4.8.6 1.5.6.4 0 .8-.1 1.1-.3.3-.2.5-.5.7-.8.1-.4.2-.8.2-1.4zm-.8.1c0 .2 0 .4-.1.6 0 .2-.1.4-.2.6-.1.2-.2.3-.4.4-.2.1-.4.1-.6.1-.2 0-.4 0-.6-.1-.2-.1-.3-.2-.4-.4-.1-.2-.2-.3-.2-.6 0-.2-.1-.5-.1-.7 0-.2 0-.5.1-.7.1-.2.1-.4.2-.6.1-.2.2-.3.4-.4.2-.1.4-.1.6-.1.3 0 .5.1.6.1.2.1.3.2.4.4.1.2.2.4.2.6.1.3.1.5.1.8zm3.4 1.7c-.2 0-.4 0-.6-.1-.2-.1-.3-.2-.4-.3-.1-.1-.2-.3-.2-.5s-.1-.4-.1-.6v-.3-.3-.5c.1-.1.3-.2.5-.3.2-.1.3-.1.5-.2.2 0 .3-.1.5-.1s.4 0 .6.1c.1.1.3.2.3.4.1.1.1.3.2.5 0 .2.1.4.1.6v.4c0 .1-.1.3-.1.4-.1.1-.1.3-.2.4-.1.1-.2.2-.4.3-.3.1-.5.1-.7.1zm.3-3.7h-.5c-.2 0-.3.1-.5.1-.2.1-.3.1-.5.2 0-.3.1-.5.1-.7.1-.2.1-.3.3-.5.1-.1.3-.2.4-.3.2-.1.4-.2.7-.2.2 0 .3-.1.5-.1s.4-.1.6-.1c0 0 .1 0 .1-.1v-.1l-.1-.3s0-.1-.1-.1h-.1c-.1 0-.2 0-.4.1-.1 0-.3.1-.4.1-.1 0-.3.1-.4.1-.1 0-.3.1-.4.1-.3.1-.6.2-.8.4-.2.2-.4.4-.5.6-.1.2-.2.5-.3.8-.1.3-.1.6-.1 1V23.2c0 .2.1.4.2.6.1.2.2.4.3.5.1.1.3.3.6.3.2.1.5.1.9.1.3 0 .6 0 .9-.1.2-.1.4-.2.6-.4.2-.2.3-.3.4-.5.1-.2.2-.4.2-.6 0-.2.1-.4.1-.6 0-.2 0-.4-.1-.7 0-.2-.1-.4-.2-.6-.1-.2-.2-.3-.3-.5-.1-.1-.3-.2-.5-.3h-.7zm4.5 5l1.8-5.3V20h-.7-.1v.1c0 .1-.1.2-.1.3 0 .1-.1.3-.2.5s-.1.3-.2.5-.1.3-.2.5c0 .1-.1.3-.1.4 0 .1-.1.1-.1.2v.1c0 .1-.1.2-.1.3 0 .1-.1.2-.1.3 0 .1-.1.2-.1.4 0 .1-.1.2-.1.3 0 .1 0 .1-.1.2h-.1l-.4-1.5s0-.1-.1-.2c0-.1-.1-.2-.1-.3 0-.1-.1-.3-.1-.4 0-.2-.1-.3-.1-.5s-.1-.3-.1-.4c0-.1-.1-.2-.1-.3 0-.1 0-.2-.1-.2v-.1h-.7-.1v.1l1.3 4.2c0 .1.1.2.1.2l.1.1h.4v.1c0 .1 0 .1-.1.2 0 .1 0 .1-.1.2v.1c0 .2-.1.3-.2.4-.1.1-.2.1-.3.2h-.3-.1-.1-.2-.1l-.1.1-.1.4v.1l.1.1c.1 0 .3.1.4.1h.3c.2 0 .4 0 .6-.1.2-.1.3-.2.4-.3.2-.5.3-.7.4-1zm2-5.2v1c0 .4.1.7.2 1 .1.3.3.5.6.6.3.1.6.2 1 .2h.4c.1 0 .3 0 .4-.1.1 0 .3-.1.4-.1v1.8h.7V20.2v-.1h-.7v2c-.1 0-.2.1-.3.1-.1 0-.2 0-.4.1h-.8c-.1 0-.3-.1-.3-.2-.1-.1-.2-.2-.2-.3 0-.1-.1-.3-.1-.5v-1-.1h-.6-.1c-.2-.1-.2-.1-.2 0zM187 20c-.3 0-.6.1-.8.2-.2.1-.5.3-.6.5-.2.2-.3.5-.4.8-.1.3-.2.6-.2 1 0 .5.1 1 .3 1.3.2.4.4.6.7.8.3.2.7.3 1.1.2h.5c.2 0 .3-.1.5-.1s.3-.1.4-.2c0 0 .1 0 .1-.1v-.1l-.2-.4s0-.1-.1-.1h-.1c-.1 0-.2.1-.3.1-.1 0-.2.1-.4.1h-.4c-.2 0-.4 0-.5-.1-.2-.1-.3-.1-.4-.3-.1-.1-.2-.3-.3-.5-.1-.2-.1-.4-.1-.7h2.5c.1 0 .2 0 .3-.1.1 0 .2-.1.2-.2.1-.1.1-.2.1-.4 0-.3 0-.6-.1-.8l-.3-.6c-.2-.2-.4-.3-.6-.4-.2.1-.5.1-.9.1zm1.2 2h-2.4c0-.2 0-.4.1-.5.1-.2.1-.3.2-.4.1-.1.2-.2.4-.3.1-.1.3-.1.5-.1s.4 0 .6.1c.2.1.3.2.4.3.1.1.2.3.2.4v.5zm2.3 2.5v-2h2.3v2.1h.6V20.2v-.1h-.5v1.8h-2.3v-1.7-.1h-.6V24.6h.6c-.1 0-.1 0-.1-.1zm4-4.3v4.1c0 .1 0 .2.1.3.1.1.1.1.3.1h.4s.1 0 .1-.1c0 0 .1-.1.1-.2l1.4-2.1c.1-.1.2-.3.3-.4.1-.1.1-.2.2-.4.1-.1.2-.2.2-.4h.1v3.4h.7V20.3c0-.1 0-.2-.1-.3-.1-.1-.1-.1-.3-.1h-.4s-.1 0-.1.1c0 0-.1.1-.1.2l-1.3 2c-.1.1-.2.3-.3.4-.1.1-.2.3-.2.4-.1.1-.2.3-.3.4V20v-.1h-.6-.1c0 .2-.1.2-.1.3zm8.2-.2h-1.8c-.2 0-.5 0-.6.1-.2.1-.3.2-.5.3-.1.1-.2.3-.3.4-.1.2-.1.3-.1.5s0 .3.1.5.1.3.3.4c.1.1.3.2.5.3-.1 0-.2.1-.3.2l-.2.2c0 .1-.1.2-.1.3l-.4 1.3v.2h.7s.1 0 .1-.1l.4-1.2c.1-.2.1-.3.2-.4.1-.1.2-.1.3-.2h1.5V24.7h.7V20.5c0-.1 0-.1-.1-.2 0-.1-.1-.1-.1-.1-.2-.1-.3-.2-.3-.2zm-1.8.7h1.4v1.5H201c-.2 0-.4 0-.5-.1l-.3-.3c-.1-.1-.1-.2-.1-.4v-.2c0-.1.1-.2.1-.2.1-.1.1-.1.3-.2.1-.1.2-.1.4-.1z"/></g><g><path class="st1" d="M40 0c11 0 21 4.5 28.3 11.7L52.5 27.5c-3.2-3.2-7.6-5.2-12.5-5.2-9.8 0-17.7 7.9-17.7 17.7S30.2 57.7 40 57.7c5.7 0 10.8-2.7 14-6.9l15.8 15.8C62.5 74.8 51.9 80 40 80 17.9 80 0 62.1 0 40S17.9 0 40 0z"/><linearGradient id="SVGID_1_" gradientUnits="userSpaceOnUse" x1="-57.358" y1="44.111" x2="109.89" y2="44.111"><stop offset="0" stop-color="#db0714"/><stop offset=".35" stop-color="#db0714"/><stop offset=".65" stop-color="#c00a26"/><stop offset="1" stop-color="#c00a26"/></linearGradient><path class="st2" d="M52.5 27.5c-3.2-3.2-7.6-5.2-12.5-5.2s-9.3 2-12.5 5.2C12.2 38.8 6.5 66 25 77.1 10.3 71.1 0 56.8 0 40c0-5.6 1.2-10.9 3.2-15.8 9-17.6 35.4-18.3 49.3 3.3z"/><linearGradient id="SVGID_2_" gradientUnits="userSpaceOnUse" x1="41.611" y1="141.855" x2="41.611" y2="-58.921"><stop offset="0" stop-color="#ececec"/><stop offset=".25" stop-color="#ececec"/><stop offset="1" stop-color="#b1b1b1"/></linearGradient><path class="st3" d="M27.5 27.5c-3.2 3.2-5.2 7.6-5.2 12.5 0 1.5.2 2.9.5 4.3 2.5 17.6 26 32.4 47 22.3C62.5 74.8 51.9 80 40 80c-5.3 0-10.4-1-15-2.9C6.5 66 12.2 38.8 27.5 27.5z"/><linearGradient id="SVGID_3_" gradientUnits="userSpaceOnUse" x1="68.24" y1="13.737" x2="3.185" y2="13.737"><stop offset="0" stop-color="#ececec"/><stop offset=".25" stop-color="#ececec"/><stop offset="1" stop-color="#b1b1b1"/></linearGradient><path class="st4" d="M40 0c11 0 21 4.5 28.3 11.7L52.5 27.5C38.5 5.9 12.1 6.6 3.2 24.2 9.3 10 23.5 0 40 0z"/><linearGradient id="SVGID_4_" gradientUnits="userSpaceOnUse" x1="80.98" y1="57.114" x2="11.671" y2="57.114"><stop offset="0" stop-color="#ececec"/><stop offset=".25" stop-color="#ececec"/><stop offset="1" stop-color="#b1b1b1"/></linearGradient><path class="st5" d="M22.8 44.3C24.7 52 31.7 57.7 40 57.7c5.7 0 10.8-2.7 14-6.9l15.8 15.8c-20.9 10.1-44.5-4.7-47-22.3z"/></g></svg>